<?xml version="1.0" encoding="utf-8"?>
<!-- Generator: Adobe Illustrator 22.1.0, SVG Export Plug-In . SVG Version: 6.00 Build 0)  -->
<svg version="1.1" id="Layer_1" xmlns="http://www.w3.org/2000/svg" xmlns:xlink="http://www.w3.org/1999/xlink" x="0px" y="0px"
	 viewBox="0 0 116 116" style="enable-background:new 0 0 116 116;" xml:space="preserve">
<style type="text/css">
	.st0{fill:#315163;}
	.st1{fill:#376A72;}
	.st2{fill:#3F817D;}
	.st3{fill:#4B947D;}
	.st4{fill:#FFFFFF;}
	.st5{fill:none;}
</style>
<path d="M58.1,131.7c-41.2,0-74.6-32.7-74.6-72.9S17-14,58.1-14s74.6,32.7,74.6,72.9S99.3,131.7,58.1,131.7z"/>
<g>
	<path class="st0" d="M130.1,57.1c0,0.6,0,1.2,0,1.8c0,1,0,2-0.1,3c0,0.8-0.1,1.5-0.1,2.3c0,0.2,0,0.4,0,0.5c0,0.1,0,0.1,0,0.1
		c0,0.5-0.1,1.1-0.2,1.6c0,0.2,0,0.4-0.1,0.5c0,0.1,0,0.1,0,0.2c-0.1,0.5-0.1,1.1-0.2,1.6c0,0.2-0.1,0.5-0.1,0.8c0,0,0,0,0,0.1
		c0,0.1,0,0.2-0.1,0.4c-0.1,0.6-0.2,1.2-0.3,1.8c0,0.2-0.1,0.5-0.1,0.8c0,0.1,0,0.1,0,0.2c0,0.2-0.1,0.4-0.1,0.6
		c0,0.2-0.1,0.3-0.1,0.5c0,0.1,0,0.1,0,0.2c0,0.1,0,0.2-0.1,0.2c0,0,0,0,0,0.1c0,0.2-0.1,0.3-0.1,0.5c0,0.2-0.1,0.4-0.1,0.5
		c0,0,0,0,0,0c0,0.1,0,0.2-0.1,0.2c0,0.1,0,0.1-0.1,0.2c0,0.1-0.1,0.2-0.1,0.3c0,0.1-0.1,0.2-0.1,0.4c-0.1,0.4-0.2,0.7-0.3,1.1
		c0,0.2-0.1,0.3-0.1,0.5c-0.1,0.4-0.2,0.7-0.3,1.1c0,0,0,0,0,0c0,0.1-0.1,0.2-0.1,0.3c0,0.1,0,0.1-0.1,0.2c0,0,0,0,0,0
		c0,0.1,0,0.2-0.1,0.2l-12.5-44.2l11.2-1.5c0.4,0.9,0.7,1.8,1,2.8c0,0,0,0.1,0.1,0.1c0.1,0.2,0.2,0.5,0.2,0.7
		c0.1,0.2,0.1,0.5,0.2,0.7c0.4,1.1,0.7,2.3,1,3.4c0.1,0.3,0.2,0.7,0.2,1c0,0,0,0,0,0c0,0,0,0,0,0c0,0,0,0.1,0,0.1c0.2,1,0.4,2,0.6,3
		c0,0.2,0.1,0.4,0.1,0.5c0,0.2,0.1,0.5,0.1,0.7c0,0.1,0,0.2,0.1,0.3c0.1,0.4,0.1,0.8,0.2,1.1c0.1,0.7,0.2,1.3,0.3,2
		c0,0.3,0.1,0.5,0.1,0.8c0,0,0,0,0,0.1c0.1,0.8,0.2,1.6,0.2,2.3c0.1,0.7,0.1,1.4,0.1,2.1c0,0.2,0,0.4,0,0.6
		C130.1,56.8,130.1,56.9,130.1,57.1z"/>
	<path class="st0" d="M130.1,58.9c0,0.9,0,1.8-0.1,2.7c0,0.1,0,0.2,0,0.3C130.1,60.9,130.1,59.9,130.1,58.9z"/>
	<path class="st0" d="M130.1,56.1c0-0.7-0.1-1.4-0.1-2.1C130,54.7,130,55.4,130.1,56.1z"/>
	<path class="st0" d="M129.8,52.2c0.1,0.6,0.1,1.2,0.1,1.8c-0.1-0.8-0.1-1.5-0.2-2.3C129.8,51.8,129.8,52,129.8,52.2z"/>
	<path class="st0" d="M129.9,64.2c0,0.2,0,0.4,0,0.5C129.9,64.5,129.9,64.3,129.9,64.2z"/>
	<path class="st0" d="M129.6,67c0,0.1,0,0.1,0,0.2C129.6,67.1,129.6,67,129.6,67z"/>
	<path class="st0" d="M128.8,72.6c0,0.1,0,0.1,0,0.2C128.7,72.7,128.8,72.6,128.8,72.6z"/>
	<path class="st0" d="M128.5,73.8c0,0.1,0,0.1,0,0.2C128.5,73.9,128.5,73.9,128.5,73.8z"/>
	<path class="st0" d="M128.4,74.2c0,0.1-0.1,0.3-0.1,0.4c0,0,0,0,0,0.1C128.3,74.6,128.4,74.4,128.4,74.2z"/>
	<path class="st0" d="M128.3,74.7c0,0,0,0.1,0,0.1C128.3,74.8,128.3,74.8,128.3,74.7C128.3,74.7,128.3,74.7,128.3,74.7z"/>
	<path class="st0" d="M128.3,74.7C128.3,74.8,128.3,74.8,128.3,74.7c-0.1,0.2-0.1,0.4-0.1,0.5C128.2,75.1,128.2,74.9,128.3,74.7z"/>
	<path class="st0" d="M128.3,74.8C128.3,74.8,128.3,74.8,128.3,74.8c-0.1,0.2-0.1,0.3-0.1,0.5C128.2,75.1,128.2,75,128.3,74.8z"/>
	<path class="st0" d="M126.9,79.8c-0.1,0.2-0.1,0.3-0.2,0.5C126.7,80.2,126.8,80,126.9,79.8L126.9,79.8z"/>
	<polygon class="st1" points="126.9,79.8 126.9,79.8 126.8,79.8 100.4,79.3 114.3,35.7 	"/>
	<path class="st0" d="M126.8,79.8c-0.1,0.2-0.1,0.3-0.2,0.5c0,0.1-0.1,0.2-0.1,0.2c-0.1,0.3-0.2,0.5-0.3,0.8c0,0,0,0,0,0
		c0,0.1-0.1,0.2-0.1,0.4c0,0.1-0.1,0.2-0.1,0.3c-0.1,0.2-0.1,0.3-0.2,0.5c0,0.1-0.1,0.3-0.2,0.4c0,0,0,0.1,0,0.1
		c-0.1,0.2-0.1,0.4-0.2,0.6c-0.1,0.2-0.1,0.4-0.2,0.5c0,0.1-0.1,0.2-0.1,0.3c0,0.1,0,0.1-0.1,0.1c0,0,0,0,0,0c0,0,0,0.1,0,0.1
		c0,0.1-0.1,0.2-0.1,0.3c0,0.1-0.1,0.2-0.1,0.3c-0.1,0.2-0.1,0.4-0.2,0.5c-0.1,0.2-0.2,0.5-0.3,0.7c-0.1,0.1-0.1,0.3-0.2,0.4
		c-0.1,0.1-0.1,0.2-0.2,0.4c-0.1,0.1-0.1,0.2-0.2,0.4c0,0.1,0,0.1-0.1,0.1c-0.1,0.3-0.3,0.6-0.4,0.9c-0.1,0.1-0.1,0.2-0.2,0.3
		c0,0.1-0.1,0.1-0.1,0.2c0,0,0,0,0,0c0,0,0,0.1,0,0.1c0,0.1-0.1,0.1-0.1,0.1c0,0.1-0.1,0.1-0.1,0.1c-0.1,0.2-0.2,0.3-0.2,0.4
		c-0.1,0.1-0.1,0.3-0.2,0.4c-0.1,0.2-0.2,0.4-0.3,0.5c-0.1,0.2-0.1,0.3-0.2,0.4c-0.1,0.1-0.1,0.2-0.2,0.3c0,0.1-0.1,0.2-0.2,0.3
		c0,0.1-0.1,0.1-0.1,0.2c0,0.1-0.1,0.1-0.1,0.2c-0.1,0.1-0.1,0.3-0.2,0.4c0,0.1-0.1,0.1-0.1,0.2c-0.1,0.1-0.1,0.3-0.2,0.4
		c0,0,0,0.1,0,0.1c-0.1,0.1-0.1,0.3-0.2,0.4c-0.1,0.2-0.2,0.4-0.4,0.6c0,0,0,0.1-0.1,0.1c0,0.1-0.1,0.1-0.1,0.2c0,0,0,0,0,0
		c-0.1,0.1-0.1,0.2-0.2,0.3c0,0,0,0.1-0.1,0.1c0,0.1-0.1,0.1-0.1,0.2c-0.1,0.1-0.1,0.2-0.2,0.3c-0.1,0.1-0.2,0.3-0.2,0.4
		c-0.2,0.4-0.5,0.8-0.7,1.1c0,0,0,0.1,0,0.1c-0.2,0.2-0.3,0.5-0.5,0.7c0,0,0,0,0,0.1c-0.3,0.4-0.6,0.9-0.9,1.3c0,0,0,0.1-0.1,0.1
		c0,0.1-0.1,0.1-0.1,0.2c0,0.1-0.1,0.1-0.1,0.2c-0.1,0.1-0.1,0.2-0.2,0.3c-0.4,0.5-0.7,0.9-1.1,1.4c-0.1,0.1-0.1,0.2-0.2,0.2
		c0,0-0.1,0.1-0.1,0.1c-0.1,0.1-0.2,0.3-0.3,0.4c-0.5,0.6-1,1.2-1.5,1.8c0,0,0,0,0,0c-0.6,0.7-1.1,1.3-1.7,2c0,0,0,0,0,0
		c-0.1,0.1-0.1,0.2-0.2,0.2c-0.4,0.5-0.9,0.9-1.3,1.4c-0.1,0.1-0.2,0.2-0.4,0.4c-0.1,0.1-0.2,0.2-0.4,0.4c-0.1,0.1-0.2,0.2-0.3,0.3
		c0,0.1-0.1,0.1-0.1,0.1c-0.2,0.1-0.3,0.3-0.5,0.5c0,0-0.1,0.1-0.1,0.1c-0.2,0.2-0.4,0.3-0.5,0.5c0,0,0,0-0.1,0.1
		c-0.1,0.1-0.1,0.1-0.2,0.2c-0.1,0.1-0.1,0.1-0.2,0.2c-0.2,0.2-0.4,0.4-0.6,0.5c-0.3,0.3-0.6,0.5-0.9,0.8c0,0,0,0,0,0
		c-0.6,0.5-1.2,1-1.8,1.5c0,0-0.1,0.1-0.1,0.1c-0.1,0.1-0.3,0.2-0.4,0.3c0,0-0.1,0.1-0.1,0.1c0,0.1-0.1,0.1-0.1,0.1
		c-0.1,0.1-0.2,0.1-0.2,0.2c-0.1,0.1-0.2,0.2-0.3,0.2c-0.5,0.4-0.9,0.7-1.4,1.1c0,0,0,0,0,0c0,0,0,0,0,0c-0.3,0.2-0.6,0.4-0.9,0.6
		c0,0-0.1,0.1-0.1,0.1c-0.1,0.1-0.2,0.1-0.2,0.2c-0.1,0.1-0.2,0.1-0.2,0.2c0,0,0,0,0,0c-0.1,0.1-0.2,0.1-0.2,0.2
		c-0.1,0.1-0.2,0.2-0.4,0.2c-0.2,0.2-0.4,0.3-0.6,0.4c-0.2,0.2-0.5,0.3-0.7,0.5c-0.1,0.1-0.2,0.1-0.3,0.2c-0.2,0.2-0.4,0.3-0.7,0.4
		c-0.2,0.1-0.5,0.3-0.7,0.4c-0.2,0.2-0.5,0.3-0.7,0.4c0,0,0,0-0.1,0c-0.2,0.1-0.4,0.2-0.5,0.3c-0.3,0.2-0.6,0.3-0.9,0.5
		c-0.3,0.2-0.5,0.3-0.8,0.5c-0.2,0.1-0.5,0.3-0.7,0.4c-0.3,0.2-0.7,0.4-1,0.5c-0.1,0-0.1,0.1-0.2,0.1c-0.3,0.1-0.5,0.3-0.8,0.4
		c-0.2,0.1-0.4,0.2-0.6,0.3c0,0-0.1,0.1-0.1,0.1c-0.4,0.2-0.8,0.4-1.2,0.6c0,0,0,0-0.1,0c-0.8,0.4-1.5,0.7-2.3,1l14.1-44.2
		L126.8,79.8z"/>
	<path class="st0" d="M126.7,80.4c0,0.1-0.1,0.2-0.1,0.2C126.6,80.5,126.7,80.4,126.7,80.4z"/>
	<path class="st0" d="M126.3,81.4c0,0.1-0.1,0.2-0.1,0.3C126.3,81.6,126.3,81.5,126.3,81.4C126.3,81.4,126.3,81.4,126.3,81.4z"/>
	<path class="st0" d="M126.2,81.8c0.1-0.1,0.1-0.2,0.1-0.4c0,0.1-0.1,0.2-0.1,0.2C126.2,81.7,126.2,81.7,126.2,81.8z"/>
	<path class="st0" d="M126.3,81.7c0,0.1,0,0.1-0.1,0.1c0,0,0,0,0,0C126.2,81.7,126.2,81.7,126.3,81.7z"/>
	<path class="st0" d="M126.2,81.8C126.2,81.8,126.2,81.8,126.2,81.8c0,0.1-0.1,0.2-0.1,0.3C126.1,82,126.2,81.9,126.2,81.8z"/>
	<path class="st0" d="M125.9,82.5c0,0.2-0.1,0.3-0.2,0.4C125.8,82.8,125.9,82.6,125.9,82.5z"/>
	<path class="st0" d="M125.8,82.9C125.8,83,125.8,83,125.8,82.9C125.8,83,125.8,83,125.8,82.9z"/>
	<path class="st0" d="M125.7,83c-0.1,0.2-0.1,0.3-0.2,0.5c0,0.1-0.1,0.1-0.1,0.2C125.6,83.5,125.7,83.2,125.7,83z"/>
	<path class="st0" d="M125.6,83.5c-0.1,0.3-0.2,0.6-0.4,0.9c0-0.1,0.1-0.1,0.1-0.2c0.1-0.2,0.2-0.4,0.2-0.5
		C125.5,83.6,125.5,83.6,125.6,83.5z"/>
	<path class="st2" d="M124.3,31.3c0.4,0.9,0.8,1.9,1.2,2.8l-11.2,1.5l-60.1,8.2L93.8-2.1c0.7,0.4,1.3,0.8,2,1.2
		c0.2,0.1,0.4,0.3,0.7,0.4c0.2,0.1,0.4,0.3,0.6,0.4c0.4,0.3,0.9,0.5,1.3,0.8c0.4,0.2,0.7,0.5,1,0.7c0.1,0.1,0.2,0.1,0.3,0.2
		c0.7,0.4,1.3,0.9,1.9,1.3c0,0,0.1,0.1,0.1,0.1c0.8,0.6,1.5,1.2,2.3,1.8c0.1,0,0.1,0.1,0.2,0.1c0.7,0.5,1.3,1.1,2,1.7
		c0.2,0.1,0.3,0.3,0.5,0.4c0.7,0.6,1.3,1.2,1.9,1.8c0,0,0.1,0.1,0.1,0.1c0.1,0,0.1,0.1,0.1,0.1c0.6,0.6,1.2,1.2,1.8,1.8
		c0.2,0.2,0.4,0.4,0.5,0.5c0.4,0.4,0.8,0.8,1.1,1.2c0.2,0.2,0.4,0.5,0.7,0.7c0,0,0.1,0.1,0.1,0.1c0.4,0.5,0.8,1,1.3,1.5
		c0.2,0.2,0.4,0.5,0.6,0.8c0,0,0,0,0,0c0,0.1,0.1,0.1,0.1,0.2c0.2,0.2,0.3,0.4,0.5,0.7c0.3,0.4,0.7,0.9,1,1.3
		c0.1,0.1,0.1,0.2,0.2,0.3c0.6,0.8,1.1,1.5,1.6,2.3c0,0.1,0.1,0.1,0.1,0.1c0.1,0.1,0.2,0.3,0.3,0.4c0.4,0.7,0.9,1.3,1.3,2
		c0.1,0.2,0.2,0.4,0.3,0.5c0.4,0.6,0.7,1.2,1.1,1.8c0.1,0.1,0.2,0.3,0.2,0.4c0.1,0.1,0.1,0.2,0.1,0.3c0.4,0.6,0.7,1.3,1,1.9
		c0.2,0.3,0.4,0.7,0.5,1C123.6,29.7,124,30.5,124.3,31.3z"/>
	<path class="st0" d="M125.3,84.2c0,0.1,0,0.1-0.1,0.2c0,0,0,0.1-0.1,0.1C125.2,84.4,125.3,84.3,125.3,84.2z"/>
	<path class="st0" d="M125.2,84.5C125.2,84.5,125.2,84.5,125.2,84.5c0,0.1,0,0.1-0.1,0.1C125.1,84.6,125.2,84.5,125.2,84.5z"/>
	<path class="st0" d="M125.1,84.6C125.1,84.6,125.1,84.6,125.1,84.6L125.1,84.6C125.1,84.7,125.1,84.6,125.1,84.6z"/>
	<path class="st0" d="M125.1,84.7c0,0,0,0.1-0.1,0.1C125.1,84.7,125.1,84.7,125.1,84.7L125.1,84.7z"/>
	<path class="st0" d="M125,85c-0.1,0.2-0.2,0.5-0.3,0.7c0.1-0.1,0.1-0.3,0.2-0.4C124.9,85.2,124.9,85.1,125,85z"/>
	<path class="st0" d="M124.8,85.3c-0.1,0.1-0.1,0.3-0.2,0.4c0,0,0,0.1-0.1,0.1C124.7,85.7,124.8,85.5,124.8,85.3z"/>
	<path class="st0" d="M124.6,85.8c-0.1,0.2-0.2,0.4-0.2,0.6c0,0,0,0.1-0.1,0.1C124.4,86.3,124.5,86,124.6,85.8z"/>
	<path class="st0" d="M124.3,86.5C124.3,86.5,124.3,86.5,124.3,86.5c-0.1,0.2-0.1,0.3-0.2,0.4C124.2,86.8,124.3,86.6,124.3,86.5z"/>
	<path class="st0" d="M123.8,87.8c-0.1,0.3-0.3,0.6-0.4,0.9C123.5,88.4,123.6,88.1,123.8,87.8z"/>
	<path class="st3" d="M123.2,28.9c-0.1-0.3-0.3-0.7-0.5-1c0.1,0.2,0.2,0.4,0.3,0.6C123.1,28.6,123.2,28.8,123.2,28.9z"/>
	<path class="st0" d="M123.2,89C123.2,89,123.2,89,123.2,89c0,0.1-0.1,0.1-0.1,0.2C123.1,89.1,123.1,89.1,123.2,89z"/>
	<path class="st0" d="M121.9,91.5c0,0.1-0.1,0.2-0.2,0.3C121.8,91.6,121.9,91.6,121.9,91.5z"/>
	<path class="st0" d="M121.8,91.7c0,0.1-0.1,0.2-0.2,0.3C121.7,91.9,121.7,91.8,121.8,91.7z"/>
	<path class="st0" d="M121.5,92.2c0,0.1,0,0.1-0.1,0.2C121.5,92.3,121.5,92.2,121.5,92.2z"/>
	<path class="st0" d="M121.4,92.4c0,0.1-0.1,0.2-0.1,0.2c0,0.1-0.1,0.1-0.1,0.1C121.3,92.6,121.4,92.5,121.4,92.4z"/>
	<path class="st0" d="M121.1,92.9c0,0.1-0.1,0.2-0.1,0.2c0,0.1-0.1,0.1-0.1,0.2C120.9,93.2,121,93.1,121.1,92.9z"/>
	<path class="st0" d="M120.8,93.4c-0.1,0.1-0.1,0.3-0.2,0.4C120.7,93.7,120.8,93.6,120.8,93.4z"/>
	<path class="st0" d="M120.2,94.5c0,0,0,0.1-0.1,0.1c0,0,0,0-0.1,0.1C120.1,94.6,120.1,94.6,120.2,94.5z"/>
	<path class="st0" d="M119.9,95C119.9,95,119.9,95,119.9,95C119.9,95,119.9,95,119.9,95z"/>
	<path class="st0" d="M119.8,95c0,0.1-0.1,0.2-0.1,0.2c0,0,0,0,0-0.1C119.8,95.2,119.8,95.1,119.8,95z"/>
	<path class="st0" d="M119.7,95.2C119.7,95.3,119.7,95.3,119.7,95.2c-0.1,0.1-0.1,0.2-0.2,0.3C119.6,95.4,119.7,95.3,119.7,95.2z"/>
	<path class="st0" d="M119.7,95.3c0,0.1-0.1,0.1-0.1,0.2C119.6,95.4,119.7,95.4,119.7,95.3z"/>
	<path class="st0" d="M119.3,95.9c-0.1,0.1-0.2,0.3-0.3,0.4c-0.1,0.2-0.3,0.5-0.5,0.7C118.8,96.6,119.1,96.3,119.3,95.9z"/>
	<path class="st0" d="M119,96.3c-0.1,0.2-0.3,0.5-0.5,0.7C118.7,96.8,118.9,96.6,119,96.3z"/>
	<path class="st0" d="M119,96.3c-0.1,0.2-0.3,0.5-0.5,0.7l0,0c0,0,0,0,0-0.1C118.7,96.8,118.9,96.6,119,96.3z"/>
	<path class="st0" d="M118.5,97.1c-0.1,0.1-0.2,0.3-0.3,0.4c-0.1,0.1-0.1,0.2-0.2,0.3C118.2,97.5,118.4,97.3,118.5,97.1z"/>
	<path class="st0" d="M118,97.8C118,97.9,118,97.9,118,97.8c-0.1,0.1-0.1,0.2-0.1,0.2c-0.1,0.1-0.1,0.2-0.2,0.2
		c-0.2,0.3-0.4,0.5-0.6,0.8C117.4,98.7,117.7,98.3,118,97.8z"/>
	<path class="st0" d="M117.9,98.1c-0.1,0.1-0.1,0.2-0.2,0.2C117.8,98.2,117.8,98.1,117.9,98.1z"/>
	<path class="st0" d="M116.6,99.9c-0.1,0.1-0.1,0.2-0.2,0.3C116.4,100.1,116.5,100,116.6,99.9z"/>
	<path class="st0" d="M116.6,99.9c-0.1,0.1-0.1,0.2-0.2,0.3c-0.2,0.3-0.4,0.6-0.7,0.9c-0.1,0.1-0.1,0.1-0.2,0.2
		C115.9,100.8,116.2,100.3,116.6,99.9z"/>
	<path class="st0" d="M116.4,100.2c-0.2,0.3-0.4,0.6-0.7,0.9C115.9,100.8,116.1,100.5,116.4,100.2z"/>
	<path class="st0" d="M115.5,101.3c0,0.1-0.1,0.2-0.2,0.2C115.4,101.4,115.5,101.4,115.5,101.3z"/>
	<path class="st0" d="M115.3,101.6c-0.1,0.1-0.2,0.3-0.3,0.4C115,101.9,115.1,101.8,115.3,101.6z"/>
	<path class="st0" d="M114.9,102c-0.1,0.1-0.2,0.2-0.3,0.3c-0.4,0.5-0.8,1-1.2,1.4C114,103.2,114.4,102.6,114.9,102z"/>
	<path class="st0" d="M114.7,102.4c-0.2,0.3-0.4,0.6-0.7,0.8c-0.2,0.2-0.4,0.4-0.5,0.6c0,0,0,0,0,0
		C113.9,103.3,114.3,102.8,114.7,102.4z"/>
	<path class="st1" d="M114.3,35.7l-13.9,43.6l-14.1,44.2c-0.1,0-0.1,0-0.1,0.1c-0.1,0-0.1,0.1-0.2,0.1c-0.4,0.2-0.9,0.4-1.3,0.5
		c-0.5,0.2-0.9,0.4-1.4,0.5c-0.1,0.1-0.2,0.1-0.2,0.1c-0.5,0.2-1.1,0.4-1.7,0.6c-0.2,0.1-0.3,0.1-0.5,0.2c-0.3,0.1-0.5,0.2-0.8,0.2
		c0,0,0,0,0,0c-0.1,0-0.2,0.1-0.3,0.1c0,0-0.1,0-0.1,0c-0.7,0.2-1.3,0.4-2,0.6L54.3,43.8L114.3,35.7z"/>
	<path class="st0" d="M114,103.2c-0.2,0.2-0.4,0.4-0.5,0.6C113.6,103.6,113.8,103.4,114,103.2z"/>
	<path class="st0" d="M113.4,103.8c-0.1,0.1-0.2,0.3-0.4,0.4c-0.2,0.2-0.4,0.4-0.6,0.7c-0.2,0.3-0.5,0.6-0.8,0.8
		C112.3,105.1,112.9,104.5,113.4,103.8z"/>
	<path class="st0" d="M113.1,104.3c-0.2,0.2-0.4,0.5-0.6,0.7C112.7,104.7,112.9,104.5,113.1,104.3z"/>
	<path class="st0" d="M111.5,106c-0.2,0.2-0.4,0.4-0.6,0.6c-0.2,0.3-0.5,0.5-0.7,0.8C110.6,107,111,106.5,111.5,106z"/>
	<path class="st0" d="M109.1,108.4C109.1,108.5,109.1,108.5,109.1,108.4c-0.1,0.1-0.1,0.1-0.1,0.1
		C109,108.5,109.1,108.5,109.1,108.4z"/>
	<path class="st0" d="M109,108.6c-0.2,0.2-0.3,0.3-0.5,0.5C108.7,108.9,108.8,108.7,109,108.6z"/>
	<path class="st0" d="M106.8,110.6c-0.2,0.2-0.5,0.5-0.8,0.7c0,0,0,0.1-0.1,0.1c0,0,0,0,0,0C106.3,111.1,106.6,110.8,106.8,110.6z"
		/>
	<path class="st3" d="M99.5,1.4c-0.3-0.2-0.7-0.5-1-0.7c0.2,0.1,0.4,0.3,0.7,0.4C99.2,1.2,99.4,1.3,99.5,1.4z"/>
	<path class="st0" d="M98,117.4c-0.1,0-0.1,0.1-0.2,0.1c0,0-0.1,0.1-0.1,0.1C97.8,117.5,97.9,117.4,98,117.4z"/>
	<path class="st0" d="M97,118c-0.1,0.1-0.3,0.2-0.5,0.3c-0.1,0-0.2,0.1-0.2,0.1C96.6,118.3,96.8,118.1,97,118z"/>
	<path class="st0" d="M95.6,118.9c-0.2,0.1-0.3,0.2-0.5,0.3C95.2,119.1,95.4,119,95.6,118.9z"/>
	<path class="st3" d="M93.8-2.1L54.3,43.8L11.6,93.5l-8.8,10.3h0c-0.1-0.1-0.1-0.2-0.2-0.2c-0.1-0.1-0.2-0.3-0.3-0.4
		c-0.2-0.3-0.4-0.5-0.6-0.8c-0.1-0.1-0.2-0.2-0.3-0.3c0,0,0,0,0,0c-0.1-0.1-0.2-0.2-0.2-0.3c-0.1-0.1-0.2-0.2-0.3-0.3
		c-0.1-0.1-0.1-0.1-0.1-0.2c-0.2-0.3-0.4-0.5-0.6-0.8c-0.2-0.2-0.3-0.4-0.4-0.6c-0.1-0.1-0.2-0.2-0.2-0.3l4.4-14.7v0L26.3,8.1
		L30.4-6c0.2-0.1,0.3-0.1,0.5-0.2c0.2-0.1,0.3-0.1,0.5-0.2c0.7-0.3,1.3-0.5,2-0.7c0.1,0,0.2-0.1,0.3-0.1c0,0,0.1,0,0.1,0
		c0.5-0.2,1-0.4,1.6-0.5c0.5-0.2,1.1-0.3,1.6-0.5c0.5-0.2,1.1-0.3,1.7-0.5c0.6-0.2,1.1-0.3,1.7-0.4c0.6-0.1,1.1-0.3,1.7-0.4
		c0.4-0.1,0.7-0.2,1.1-0.2c0.1,0,0.3-0.1,0.4-0.1c0.3-0.1,0.6-0.1,0.9-0.2c0.4-0.1,0.7-0.1,1.1-0.2c0.1,0,0.2,0,0.2,0
		c0.3-0.1,0.6-0.1,0.9-0.1c0.2-0.1,0.4-0.1,0.7-0.1c1.1-0.2,2.3-0.3,3.5-0.4c0.1,0,0.1,0,0.2,0c0.5-0.1,1-0.1,1.5-0.1
		c0.1,0,0.1,0,0.2,0c0.8-0.1,1.6-0.1,2.4-0.1c1.1-0.1,2.1-0.1,3.2-0.1c0.4,0,0.9,0,1.3,0c0.3,0,0.7,0,1,0c0.2,0,0.3,0,0.4,0
		c0.1,0,0.2,0,0.4,0c0.4,0,0.7,0,1,0.1c0.3,0,0.6,0,0.8,0.1c0.5,0,1,0.1,1.5,0.1c0.8,0.1,1.5,0.1,2.2,0.2c0.1,0,0.2,0,0.2,0
		c0.3,0,0.6,0.1,0.9,0.1c0.2,0,0.4,0.1,0.6,0.1c0.5,0.1,1,0.1,1.5,0.2c0.6,0.1,1.2,0.2,1.7,0.3c0.2,0,0.4,0.1,0.6,0.1
		c0.1,0,0.2,0,0.3,0.1c0.7,0.1,1.3,0.3,2,0.4c2.3,0.5,4.5,1.1,6.7,1.9c0.7,0.2,1.4,0.5,2.2,0.8c2.9,1.1,5.7,2.3,8.3,3.7
		C92.5-2.8,93.2-2.5,93.8-2.1z"/>
	<path class="st0" d="M86.4,123.5c0.8-0.3,1.5-0.7,2.3-1c-0.1,0.1-0.2,0.1-0.4,0.2c0,0-0.1,0-0.1,0.1C87.6,123,87,123.2,86.4,123.5z
		"/>
	<path class="st2" d="M86.4,123.5L86.4,123.5c-0.1,0-0.1,0-0.1,0.1C86.3,123.5,86.3,123.5,86.4,123.5z"/>
	<path class="st2" d="M84.7,124.1c-0.2,0.1-0.3,0.1-0.5,0.2c-0.3,0.1-0.6,0.2-0.9,0.3C83.8,124.5,84.3,124.3,84.7,124.1z"/>
	<path class="st2" d="M83.1,124.8c-0.3,0.1-0.6,0.2-1,0.4c-0.1,0-0.2,0.1-0.2,0.1c-0.2,0.1-0.3,0.1-0.5,0.2
		C82,125.2,82.5,125,83.1,124.8z"/>
	<path class="st2" d="M80.9,125.5c-0.2,0.1-0.3,0.1-0.5,0.2c-0.1,0-0.2,0.1-0.2,0.1C80.4,125.7,80.6,125.6,80.9,125.5z"/>
	<path class="st2" d="M80.1,125.8c-0.1,0-0.1,0-0.2,0.1C80,125.8,80,125.8,80.1,125.8C80.1,125.8,80.1,125.8,80.1,125.8z"/>
	<path class="st2" d="M80.1,125.8c0,0-0.1,0-0.1,0.1c0,0-0.1,0-0.1,0C79.9,125.8,80,125.8,80.1,125.8z"/>
	<path class="st2" d="M46.6,128.2l-35-34.7l42.7-49.6l23.5,82.6c-0.1,0-0.2,0.1-0.3,0.1c-1.4,0.4-2.9,0.7-4.4,1.1"/>
	<path class="st2" d="M67.9-10.7c-0.3-0.1-0.6-0.1-0.9-0.1c0.1,0,0.2,0,0.3,0C67.5-10.8,67.7-10.7,67.9-10.7z"/>
	<path class="st2" d="M60.8-11.3c-0.1,0-0.3,0-0.4,0C60.5-11.3,60.7-11.3,60.8-11.3z"/>
	<path class="st2" d="M60.4-11.3c-0.3,0-0.6,0-1,0c0.1,0,0.1,0,0.2,0C59.9-11.3,60.1-11.3,60.4-11.3z"/>
	<path class="st2" d="M58.1-11.4c-1.1,0-2.1,0-3.2,0.1C56-11.3,57-11.4,58.1-11.4z"/>
	<path class="st2" d="M54.9-11.3c-0.8,0-1.6,0.1-2.4,0.1c0.5,0,1-0.1,1.5-0.1C54.3-11.3,54.6-11.3,54.9-11.3z"/>
	<path class="st2" d="M54.1-11.3c-0.5,0-1,0.1-1.5,0.1c-0.1,0-0.1,0-0.2,0c-0.1,0-0.2,0-0.4,0C52.7-11.2,53.4-11.2,54.1-11.3z"/>
	<path class="st2" d="M52.4-11.1c-0.5,0-1,0.1-1.5,0.1c0.4,0,0.7-0.1,1.1-0.1C52.2-11.1,52.3-11.1,52.4-11.1z"/>
	<path class="st2" d="M51-11c-0.1,0-0.1,0-0.2,0C50.8-11,50.9-11,51-11z"/>
	<path class="st2" d="M47.3-10.6c-0.2,0-0.4,0.1-0.7,0.1C46.9-10.5,47.1-10.5,47.3-10.6z"/>
	<path class="st1" d="M40.1,126.9c-3.1-0.8-6-1.7-8.9-2.9c-0.9-0.4-1.8-0.7-2.6-1.1c-0.1,0-0.2-0.1-0.3-0.1c-1-0.4-1.9-0.9-2.8-1.3
		c-0.9-0.5-1.9-0.9-2.8-1.4c0,0,0,0,0,0c-0.9-0.5-1.8-1-2.6-1.5h0l0,0c-0.9-0.5-1.7-1.1-2.6-1.7c-0.9-0.6-1.7-1.2-2.5-1.8
		c-0.8-0.5-1.5-1.1-2.2-1.7c-0.1-0.1-0.2-0.1-0.2-0.2c-0.1-0.1-0.1-0.1-0.2-0.1c0,0,0,0,0,0c-0.7-0.5-1.3-1.1-2-1.7
		c-0.1-0.1-0.2-0.1-0.2-0.2c-0.7-0.6-1.4-1.3-2.1-1.9c-0.2-0.1-0.3-0.3-0.4-0.4c-0.1-0.1-0.2-0.1-0.2-0.2c-0.2-0.2-0.4-0.4-0.6-0.6
		c-0.2-0.2-0.4-0.4-0.6-0.6c-0.1-0.1-0.3-0.3-0.4-0.4c0,0-0.1-0.1-0.1-0.1c-0.2-0.2-0.3-0.4-0.5-0.5c-0.4-0.4-0.8-0.9-1.2-1.3
		c-0.1-0.1-0.3-0.3-0.4-0.4c-0.1-0.1-0.2-0.2-0.3-0.3c-0.1-0.1-0.1-0.1-0.2-0.2c-0.1-0.1-0.2-0.3-0.3-0.4l8.8-10.3l35,34.7"/>
	<path class="st0" d="M40,126.9c-0.5-0.1-0.9-0.2-1.3-0.4c-0.1,0-0.1,0-0.1,0c-0.2-0.1-0.3-0.1-0.5-0.1c0,0-0.1,0-0.1,0
		c-0.6-0.2-1.2-0.4-1.8-0.5c0,0,0,0,0,0c-0.1-0.1-0.3-0.1-0.4-0.1c-0.2-0.1-0.5-0.1-0.7-0.2c-0.2-0.1-0.4-0.1-0.7-0.2c0,0,0,0,0,0
		c0,0,0,0-0.1,0c-0.6-0.2-1.2-0.4-1.8-0.7c0,0-0.1,0-0.1,0c-0.1,0-0.2-0.1-0.3-0.1c-0.3-0.1-0.5-0.2-0.8-0.3
		c2.9,1.1,5.9,2.1,8.9,2.9"/>
	<path class="st0" d="M35,125.4c0.2,0.1,0.5,0.2,0.7,0.2c-0.1,0-0.2-0.1-0.3-0.1C35.3,125.5,35.1,125.4,35,125.4z"/>
	<path class="st2" d="M33.4-7.1c-0.7,0.2-1.3,0.5-2,0.7c0.2-0.1,0.4-0.2,0.6-0.2C32.5-6.8,32.9-6.9,33.4-7.1z"/>
	<path class="st0" d="M32,124.3c-0.4-0.2-0.8-0.3-1.2-0.5c0.1,0,0.2,0.1,0.4,0.1C31.5,124.1,31.7,124.2,32,124.3z"/>
	<path class="st0" d="M31.2,124c-0.1,0-0.2-0.1-0.4-0.1c-0.1,0-0.2-0.1-0.2-0.1c-0.1,0-0.1-0.1-0.2-0.1c0,0-0.1,0-0.1,0
		c-0.1-0.1-0.2-0.1-0.3-0.1c0,0,0,0,0,0c-0.5-0.2-0.9-0.4-1.4-0.6C29.4,123.3,30.3,123.6,31.2,124z"/>
	<path class="st2" d="M30.4-6L26.3,8.1L-12,43c0.2-1.1,0.5-2.1,0.8-3.2c0.2-0.7,0.4-1.4,0.6-2c0-0.1,0.1-0.3,0.1-0.4
		c0,0,0-0.1,0-0.1c0-0.1,0.1-0.3,0.1-0.4c0.3-0.8,0.5-1.6,0.8-2.3c0.3-0.8,0.6-1.7,1-2.5c0,0,0-0.1,0-0.1c0.1-0.2,0.1-0.4,0.2-0.5
		c0.1-0.2,0.2-0.4,0.3-0.6c0.1-0.2,0.2-0.5,0.3-0.7c0.1-0.3,0.3-0.7,0.5-1c0,0,0,0,0,0c0.1-0.1,0.1-0.3,0.2-0.4
		c0.1-0.3,0.3-0.6,0.5-0.9c0.1-0.3,0.3-0.6,0.4-0.8c0-0.1,0.1-0.2,0.1-0.3c0.1-0.3,0.3-0.5,0.4-0.8c0.1-0.2,0.2-0.3,0.3-0.5
		c0.3-0.5,0.5-1,0.8-1.4c0.4-0.6,0.7-1.2,1.1-1.8c0.1-0.1,0.1-0.2,0.2-0.3c0-0.1,0.1-0.1,0.1-0.1c0.1-0.1,0.1-0.2,0.2-0.2
		c0.3-0.5,0.7-1,1-1.5c0.3-0.5,0.6-0.9,1-1.4c0.1-0.1,0.1-0.1,0.2-0.2c0.4-0.6,0.8-1.1,1.3-1.7l0,0C1,16.1,1.5,15.6,1.9,15
		C2,14.9,2,14.9,2.1,14.8c0.1-0.1,0.1-0.2,0.2-0.2c0.2-0.2,0.4-0.5,0.6-0.8c0.1-0.1,0.2-0.2,0.3-0.4c0,0,0,0,0,0
		c0.2-0.2,0.3-0.4,0.5-0.6C4,12.5,4.3,12.2,4.5,12c0,0,0.1-0.1,0.1-0.1c0,0,0-0.1,0.1-0.1c0.4-0.4,0.8-0.9,1.2-1.3
		c0-0.1,0.1-0.1,0.1-0.2c0.1-0.1,0.2-0.2,0.3-0.3c0.5-0.5,1-1,1.5-1.5C8,8.4,8.1,8.3,8.2,8.3C8.3,8.2,8.4,8.1,8.5,8
		c0-0.1,0.1-0.1,0.1-0.1c0.1-0.1,0.3-0.3,0.5-0.4c0.5-0.4,1-0.9,1.5-1.3c0.1-0.1,0.1-0.1,0.2-0.1c0.1-0.1,0.3-0.2,0.4-0.4
		c0.4-0.3,0.8-0.7,1.2-1c0.2-0.1,0.3-0.2,0.5-0.4c0.1-0.1,0.2-0.2,0.3-0.2c0.1-0.1,0.3-0.2,0.4-0.3c0.3-0.3,0.7-0.5,1-0.8
		c0.1-0.1,0.1-0.1,0.2-0.1c0.2-0.2,0.4-0.3,0.7-0.5c0.3-0.2,0.5-0.4,0.8-0.5c0.1-0.1,0.3-0.2,0.5-0.3c0.2-0.1,0.4-0.2,0.5-0.4
		c0.2-0.1,0.4-0.2,0.5-0.4c0.1-0.1,0.2-0.2,0.4-0.2c0.1-0.1,0.2-0.1,0.2-0.1c0.4-0.3,0.8-0.5,1.2-0.8c0.1-0.1,0.3-0.2,0.4-0.3
		c0.1-0.1,0.2-0.1,0.3-0.2C20.4-0.9,20.4-1,20.5-1c0.7-0.4,1.4-0.8,2.1-1.2c0.1,0,0.1-0.1,0.2-0.1c0.1-0.1,0.1-0.1,0.2-0.1
		c0.3-0.2,0.7-0.4,1-0.5c0.4-0.2,0.8-0.4,1.2-0.6c0,0,0.1,0,0.1-0.1c0,0,0,0,0,0c0.1,0,0.1-0.1,0.2-0.1c0.2-0.1,0.3-0.2,0.5-0.2
		c0.2-0.1,0.4-0.2,0.6-0.3c0.5-0.2,1-0.5,1.5-0.7c0.7-0.3,1.4-0.6,2.1-0.9C30.2-5.9,30.3-5.9,30.4-6z"/>
	<path class="st0" d="M30.1-5.8c-0.7,0.3-1.4,0.6-2.1,0.9C28.1-5,28.1-5,28.2-5c0.1,0,0.2-0.1,0.3-0.1C29-5.4,29.5-5.6,30.1-5.8z"/>
	<path class="st0" d="M30.1-5.8c-0.6,0.2-1.1,0.4-1.6,0.7c0,0,0,0,0,0C29-5.4,29.6-5.6,30.1-5.8z"/>
	<path class="st0" d="M30,123.5c-0.4-0.2-0.8-0.3-1.2-0.5c-0.1,0-0.2-0.1-0.2-0.1C29,123.1,29.5,123.3,30,123.5z"/>
	<path class="st0" d="M28.3,122.8c0.1,0,0.2,0.1,0.3,0.1C28.5,122.9,28.4,122.9,28.3,122.8C28.3,122.8,28.3,122.8,28.3,122.8z"/>
	<path class="st0" d="M28.3,122.8c-0.2-0.1-0.3-0.1-0.5-0.2c-0.3-0.1-0.5-0.2-0.8-0.4C27.4,122.4,27.9,122.6,28.3,122.8
		C28.3,122.8,28.3,122.8,28.3,122.8z"/>
	<path class="st0" d="M28.3,122.8c-0.4-0.2-0.8-0.4-1.3-0.6c-0.1-0.1-0.2-0.1-0.3-0.2c-0.1,0-0.2-0.1-0.3-0.1
		c-0.1-0.1-0.2-0.1-0.3-0.1c-0.2-0.1-0.5-0.2-0.7-0.4C26.4,121.9,27.3,122.4,28.3,122.8z"/>
	<path class="st0" d="M26.7,122.1c0.1,0.1,0.2,0.1,0.3,0.2c0,0-0.1,0-0.1,0C26.8,122.2,26.8,122.1,26.7,122.1z"/>
	<path class="st0" d="M26.1,121.8c0.1,0.1,0.2,0.1,0.3,0.1c0,0,0,0-0.1,0C26.3,121.9,26.2,121.9,26.1,121.8z"/>
	<path class="st1" d="M26.3,8.1L3.7,84.7L-12,43.1v0c0,0,0,0,0-0.1v0L26.3,8.1z"/>
	<path class="st0" d="M26.1,121.8c-0.3-0.1-0.5-0.2-0.8-0.4c-0.1,0-0.1-0.1-0.2-0.1c-0.2-0.1-0.4-0.2-0.6-0.3
		c0.3,0.2,0.6,0.3,0.9,0.5C25.7,121.6,25.9,121.7,26.1,121.8z"/>
	<path class="st0" d="M25.4,121.4c-0.3-0.1-0.6-0.3-0.9-0.5c-0.6-0.3-1.2-0.7-1.8-1C23.6,120.5,24.5,121,25.4,121.4z"/>
	<path class="st0" d="M25.1-3.6c-0.4,0.2-0.8,0.4-1.2,0.6c0.2-0.1,0.5-0.2,0.7-0.4C24.8-3.4,25-3.5,25.1-3.6z"/>
	<path class="st0" d="M25.1,121.3c-0.7-0.3-1.3-0.7-2-1c0.4,0.2,0.9,0.5,1.3,0.7C24.7,121.1,24.9,121.2,25.1,121.3z"/>
	<path class="st0" d="M22.7,120c0.6,0.3,1.2,0.7,1.8,1c-0.4-0.2-0.9-0.5-1.3-0.7C23,120.2,22.9,120.1,22.7,120z"/>
	<path class="st0" d="M22.7,120c0.2,0.1,0.4,0.2,0.5,0.3c-0.4-0.2-0.7-0.4-1.1-0.6C22.3,119.8,22.5,119.9,22.7,120
		C22.6,120,22.7,120,22.7,120z"/>
	<path class="st0" d="M22.6,120c-0.2-0.1-0.3-0.2-0.5-0.3c-0.1-0.1-0.2-0.1-0.3-0.2C22.1,119.7,22.4,119.8,22.6,120z"/>
	<path class="st0" d="M22.6,120c-0.3-0.1-0.5-0.3-0.8-0.4c-0.3-0.2-0.6-0.3-0.9-0.5c-0.1-0.1-0.2-0.1-0.3-0.2
		c-0.2-0.1-0.4-0.3-0.7-0.4C20.9,119,21.7,119.5,22.6,120z"/>
	<path class="st0" d="M22.6-2.2c-0.7,0.4-1.4,0.8-2.1,1.2c0.1-0.1,0.2-0.1,0.3-0.2c0.1-0.1,0.2-0.1,0.3-0.2
		C21.6-1.6,22.1-1.9,22.6-2.2z"/>
	<path class="st0" d="M21,119.1c0.3,0.2,0.6,0.3,0.9,0.5c0,0,0,0,0,0C21.6,119.4,21.3,119.2,21,119.1z"/>
	<path class="st0" d="M20.7,118.9c-0.2-0.1-0.4-0.2-0.5-0.3c0,0,0,0,0,0c0,0-0.1-0.1-0.1-0.1h0C20.2,118.6,20.4,118.7,20.7,118.9z"
		/>
	<path class="st0" d="M20,118.4c0.1,0.1,0.1,0.1,0.1,0.1c-0.3-0.2-0.5-0.3-0.8-0.5c-0.2-0.2-0.5-0.3-0.7-0.5
		c0.1,0.1,0.3,0.2,0.4,0.3C19.3,118.1,19.7,118.3,20,118.4z"/>
	<path class="st0" d="M20,118.4c-0.3-0.2-0.7-0.4-1-0.6C19.3,118,19.7,118.2,20,118.4L20,118.4z"/>
	<path class="st0" d="M20,118.4c-0.3-0.2-0.6-0.4-1-0.6c-0.1-0.1-0.3-0.2-0.4-0.3c-0.4-0.3-0.8-0.5-1.2-0.8
		C18.2,117.3,19.1,117.9,20,118.4z"/>
	<path class="st0" d="M19.6-0.4c-0.4,0.2-0.8,0.5-1.2,0.8c0.2-0.1,0.3-0.2,0.5-0.3C19.1-0.1,19.3-0.3,19.6-0.4z"/>
	<path class="st0" d="M17.4,116.8c0.4,0.3,0.8,0.5,1.2,0.8c0,0-0.1,0-0.1,0c-0.2-0.1-0.4-0.2-0.6-0.4c-0.2-0.1-0.4-0.3-0.7-0.5
		C17.3,116.7,17.3,116.7,17.4,116.8z"/>
	<path class="st0" d="M18.1,0.5c-0.1,0.1-0.2,0.1-0.4,0.2C17.9,0.6,18,0.5,18.1,0.5z"/>
	<path class="st0" d="M17.8,0.7c-0.2,0.1-0.4,0.2-0.5,0.4C17.4,0.9,17.6,0.8,17.8,0.7z"/>
	<path class="st0" d="M17.4,116.8c0,0-0.1,0-0.1-0.1c-0.6-0.4-1.1-0.8-1.7-1.2c-0.1,0-0.1-0.1-0.2-0.1c0,0-0.1,0-0.1-0.1
		c-0.1-0.1-0.3-0.2-0.4-0.3C15.7,115.6,16.5,116.2,17.4,116.8z"/>
	<path class="st0" d="M17.3,116.7c-0.1,0-0.1-0.1-0.2-0.1c-0.5-0.4-1-0.7-1.5-1.1C16.1,115.9,16.7,116.3,17.3,116.7z"/>
	<path class="st0" d="M17.2,1.1c-0.2,0.1-0.4,0.2-0.5,0.4C16.9,1.3,17,1.2,17.2,1.1z"/>
	<path class="st0" d="M16.7,1.4c-0.2,0.1-0.3,0.2-0.5,0.3C16,1.9,15.8,2,15.6,2.2C16,1.9,16.3,1.7,16.7,1.4z"/>
	<path class="st0" d="M16.2,1.8c-0.3,0.2-0.5,0.4-0.8,0.5c0.1-0.1,0.1-0.1,0.2-0.1C15.8,2,16,1.9,16.2,1.8z"/>
	<path class="st0" d="M15.4,2.3c-0.2,0.2-0.4,0.3-0.7,0.5C14.8,2.7,15,2.7,15,2.6C15.2,2.5,15.3,2.4,15.4,2.3z"/>
	<path class="st0" d="M15.3,115.3c-0.3-0.2-0.7-0.5-1-0.7c-0.1-0.1-0.1-0.1-0.2-0.1c-0.1-0.1-0.1-0.1-0.2-0.2c0.3,0.3,0.7,0.5,1,0.7
		C15,115.1,15.1,115.2,15.3,115.3z"/>
	<path class="st0" d="M14.8,115c-0.3-0.2-0.7-0.5-1-0.7c-0.4-0.3-0.8-0.6-1.2-1C13.4,113.9,14.1,114.4,14.8,115z"/>
	<path class="st0" d="M14.6,2.9c-0.4,0.3-0.7,0.5-1,0.8c0-0.1,0.1-0.1,0.1-0.1C14,3.4,14.3,3.2,14.6,2.9z"/>
	<path class="st0" d="M12.8,4.3c-0.2,0.1-0.3,0.2-0.5,0.4C12.5,4.5,12.7,4.4,12.8,4.3z"/>
	<path class="st0" d="M12.3,4.7c-0.4,0.3-0.8,0.7-1.2,1c0.2-0.2,0.5-0.4,0.8-0.6C12.1,4.9,12.2,4.8,12.3,4.7z"/>
	<path class="st0" d="M10.2,111.3c0.6,0.6,1.3,1.1,2,1.7c-0.5-0.4-0.9-0.8-1.4-1.1C10.6,111.7,10.4,111.5,10.2,111.3z"/>
	<path class="st0" d="M12.2,113c-0.2-0.1-0.4-0.3-0.5-0.4c-0.3-0.2-0.6-0.5-0.9-0.7C11.3,112.2,11.7,112.6,12.2,113z"/>
	<path class="st0" d="M10.7,6c-0.1,0.1-0.1,0.1-0.2,0.1C10.6,6.1,10.6,6.1,10.7,6C10.7,6.1,10.7,6,10.7,6z"/>
	<path class="st0" d="M10.5,6.2c-0.5,0.4-1,0.8-1.5,1.3c0.2-0.2,0.4-0.4,0.6-0.6C10,6.7,10.3,6.4,10.5,6.2z"/>
	<path class="st0" d="M10,111.1c-0.2-0.1-0.4-0.3-0.5-0.5c-0.1,0-0.1-0.1-0.2-0.2C9.5,110.7,9.8,110.9,10,111.1z"/>
	<path class="st0" d="M10,111.1c-0.2-0.2-0.5-0.4-0.7-0.6c0,0,0,0-0.1-0.1c-0.1-0.1-0.1-0.1-0.2-0.2c-0.4-0.3-0.7-0.7-1.1-1
		C8.6,109.9,9.3,110.5,10,111.1z"/>
	<path class="st0" d="M8,8.5C7.4,9,6.9,9.5,6.4,10c0.2-0.2,0.5-0.5,0.7-0.7C7.4,9,7.7,8.8,8,8.5z"/>
	<path class="st0" d="M8,8.5C7.7,8.8,7.4,9,7.1,9.3C7.3,9.2,7.4,9,7.6,8.9C7.7,8.8,7.8,8.6,8,8.5z"/>
	<path class="st0" d="M6.7,108c0.2,0.2,0.4,0.4,0.6,0.6c-0.1-0.1-0.2-0.2-0.3-0.3C6.9,108.2,6.8,108.1,6.7,108z"/>
	<path class="st0" d="M3.9,105.1c0.4,0.4,0.8,0.9,1.2,1.3c-0.1-0.1-0.2-0.2-0.3-0.3c-0.1-0.1-0.1-0.1-0.2-0.2c0,0-0.1-0.1-0.1-0.1
		C4.3,105.5,4.1,105.3,3.9,105.1z"/>
	<path class="st0" d="M5.1,106.4c-0.1-0.1-0.2-0.2-0.3-0.3c0,0,0,0,0,0C4.9,106.2,5,106.3,5.1,106.4z"/>
	<path class="st0" d="M3.7,84.7L3.7,84.7l-4.4,14.7c0,0,0,0,0,0C-0.8,99.2-1,99-1.1,98.8C-1.4,98.4-1.7,98-2,97.5
		c-0.1-0.1-0.2-0.2-0.2-0.3c-0.1-0.1-0.1-0.1-0.1-0.2c-0.2-0.3-0.5-0.7-0.7-1c-0.1-0.1-0.2-0.3-0.3-0.4c-0.3-0.4-0.5-0.8-0.8-1.2
		c-0.2-0.3-0.3-0.5-0.5-0.8c-0.1-0.1-0.2-0.3-0.2-0.4C-4.8,93-5,92.8-5,92.6c-0.1-0.2-0.2-0.3-0.3-0.5c-0.1-0.1-0.1-0.2-0.2-0.3
		c-0.1-0.1-0.1-0.1-0.1-0.2c0-0.1-0.1-0.1-0.1-0.2c-0.1-0.2-0.2-0.4-0.3-0.6c-0.1-0.1-0.1-0.2-0.2-0.4c-0.1-0.1-0.1-0.2-0.1-0.2
		c-0.2-0.4-0.4-0.7-0.5-1.1c-0.2-0.3-0.4-0.7-0.5-1c0-0.1-0.1-0.2-0.1-0.3c-0.2-0.5-0.5-1.1-0.7-1.7c0-0.1,0-0.1-0.1-0.1
		c-0.1-0.1-0.1-0.2-0.2-0.4c-0.1-0.2-0.1-0.3-0.2-0.5c-0.1-0.2-0.2-0.3-0.2-0.5C-9,84.3-9.1,84-9.3,83.7c-0.1-0.2-0.2-0.5-0.3-0.7
		c0,0,0-0.1,0-0.1c-0.1-0.4-0.3-0.7-0.4-1.1c-0.1-0.3-0.2-0.7-0.4-1c-0.1-0.2-0.2-0.5-0.2-0.7c-0.1-0.3-0.2-0.5-0.2-0.8
		c-0.1-0.4-0.3-0.9-0.4-1.3c0,0,0-0.1,0-0.1c0,0,0,0,0,0c0-0.1-0.1-0.3-0.1-0.4c-0.2-0.6-0.3-1.2-0.5-1.8c0-0.1-0.1-0.2-0.1-0.2
		c0,0,0,0,0-0.1c0-0.1,0-0.1,0-0.1c0-0.1-0.1-0.3-0.1-0.4c-0.2-0.7-0.3-1.4-0.5-2.1c-0.2-0.8-0.3-1.7-0.5-2.6c0,0,0-0.1,0-0.1
		c-0.1-0.9-0.3-1.8-0.4-2.7c0-0.2,0-0.4-0.1-0.5c-0.1-0.7-0.2-1.4-0.2-2c0,0,0-0.1,0-0.1c0-0.1,0-0.1,0-0.2c0-0.2,0-0.5-0.1-0.7
		c0-0.3,0-0.5-0.1-0.8c0-0.1,0-0.3,0-0.4c0-0.1,0-0.2,0-0.3c0-0.1,0-0.1,0-0.2c0-0.2,0-0.4,0-0.6c0-0.1,0-0.1,0-0.1
		c0-0.8-0.1-1.6-0.1-2.4c0-0.7,0-1.4,0-2c0-0.1,0-0.1,0-0.2c0-0.4,0-0.9,0.1-1.3c0-0.2,0-0.3,0-0.5c0-0.5,0.1-0.9,0.1-1.4
		c0-0.1,0-0.1,0-0.2c0-0.1,0-0.3,0-0.5c0-0.4,0.1-0.7,0.1-1.1c0-0.2,0-0.3,0.1-0.5c0-0.4,0.1-0.8,0.2-1.3c0-0.4,0.1-0.8,0.2-1.2
		c0-0.1,0-0.2,0.1-0.3c0.1-0.5,0.2-1.1,0.3-1.6c0,0,0,0,0-0.1c0-0.1,0-0.2,0.1-0.4c0.1-0.5,0.2-1,0.3-1.5c0,0,0-0.1,0-0.1
		c0.1-0.6,0.3-1.2,0.4-1.8L3.7,84.7z"/>
	<path class="st0" d="M3,104.1c0.1,0.1,0.1,0.1,0.2,0.2l0,0C3.1,104.2,3.1,104.2,3,104.1z"/>
	<path class="st0" d="M2.7,103.7c0.1,0.1,0.2,0.3,0.3,0.4C2.9,104,2.8,103.9,2.7,103.7L2.7,103.7L2.7,103.7z"/>
	<path class="st2" d="M2.5,103.5c0.1,0.1,0.1,0.2,0.2,0.2C2.7,103.7,2.6,103.6,2.5,103.5C2.5,103.5,2.5,103.5,2.5,103.5z"/>
	<path class="st0" d="M-2.9,21.6c0,0-0.1,0.1-0.1,0.1C-3,21.7-2.9,21.7-2.9,21.6z"/>
	<path class="st0" d="M-3.2,22.1c-0.4,0.6-0.7,1.2-1.1,1.8c0.1-0.1,0.1-0.2,0.2-0.4C-3.8,23-3.5,22.5-3.2,22.1z"/>
	<path class="st0" d="M-5,92.6c0.1,0.2,0.2,0.4,0.3,0.6C-4.8,93-4.9,92.8-5,92.6z"/>
	<path class="st0" d="M-5.5,91.8c0.1,0.1,0.1,0.2,0.2,0.3c0,0,0,0,0,0C-5.4,92-5.5,91.9-5.5,91.8z"/>
	<path class="st0" d="M-6,26.9c-0.1,0.3-0.3,0.6-0.4,0.8c0.1-0.2,0.2-0.4,0.3-0.5C-6.1,27.1-6,27-6,26.9z"/>
	<path class="st0" d="M-6.4,27.7c-0.2,0.3-0.3,0.6-0.5,0.9C-6.7,28.3-6.6,28-6.4,27.7z"/>
	<path class="st0" d="M-6.9,28.6C-7,28.8-7,28.9-7.1,29.1C-7,28.9-6.9,28.8-6.9,28.6z"/>
	<path class="st0" d="M-7.1,29.1c-0.2,0.3-0.3,0.7-0.5,1C-7.4,29.8-7.3,29.4-7.1,29.1z"/>
	<path class="st0" d="M-7.6,30.1c-0.1,0.2-0.2,0.5-0.3,0.7c0-0.1,0-0.1,0.1-0.2C-7.7,30.5-7.7,30.3-7.6,30.1z"/>
	<path class="st0" d="M-7.9,30.8C-8,31-8.1,31.2-8.2,31.5C-8.1,31.3-8,31.1-8,31C-7.9,30.9-7.9,30.9-7.9,30.8z"/>
	<path class="st0" d="M-8.4,32.1c-0.4,0.8-0.7,1.6-1,2.5c0.2-0.5,0.4-0.9,0.5-1.4c0-0.1,0.1-0.1,0.1-0.2
		C-8.7,32.6-8.6,32.3-8.4,32.1z"/>
	<path class="st0" d="M-9.4,34.5c-0.3,0.8-0.6,1.5-0.8,2.3c0.2-0.7,0.5-1.3,0.7-2C-9.5,34.8-9.5,34.6-9.4,34.5z"/>
	<path class="st0" d="M-10.6,37.8c-0.2,0.7-0.4,1.3-0.6,2c0.1-0.2,0.1-0.4,0.2-0.7c0-0.2,0.1-0.4,0.2-0.6
		C-10.7,38.3-10.7,38.1-10.6,37.8z"/>
	<path class="st1" d="M-12,43C-12,43-12,43.1-12,43C-12.1,43.1-12.1,43-12,43L-12,43z"/>
	<path class="st1" d="M-12,43C-12.1,43-12.1,43.1-12,43L-12,43C-12.1,43-12,43-12,43z"/>
	<path class="st1" d="M-12.1,43L-12.1,43C-12,43-12.1,43-12.1,43L-12.1,43z"/>
	<path class="st0" d="M-13.6,52.6c0-0.3,0.1-0.6,0.1-0.8c0,0.4-0.1,0.7-0.1,1.1C-13.6,52.8-13.6,52.7-13.6,52.6z"/>
	<polygon class="st4" points="63.7,3 71.5,63.2 6.7,81.8 34.9,102.2 52.1,114.7 103.8,91.2 109.1,35.9 	"/>
	<polygon class="st4" points="58.5,4.6 48.6,18.3 61.8,25.8 	"/>
	<path class="st5" d="M-13.3,68.2"/>
</g>
</svg>
