<?xml version="1.0" encoding="UTF-8" standalone="no"?>
<svg
   xmlns:dc="http://purl.org/dc/elements/1.1/"
   xmlns:cc="http://creativecommons.org/ns#"
   xmlns:rdf="http://www.w3.org/1999/02/22-rdf-syntax-ns#"
   xmlns:svg="http://www.w3.org/2000/svg"
   xmlns="http://www.w3.org/2000/svg"
   xmlns:xlink="http://www.w3.org/1999/xlink"
   id="svg4746"
   height="99.552101"
   width="143.16805"
   viewBox="0 0 143.16805 99.552101"
   preserveAspectRatio="xMidYMid meet"
   version="1.1">
  <metadata
     id="metadata4750">
    <rdf:RDF>
      <cc:Work
         rdf:about="">
        <dc:format>image/svg+xml</dc:format>
        <dc:type
           rdf:resource="http://purl.org/dc/dcmitype/StillImage" />
        <dc:title></dc:title>
      </cc:Work>
    </rdf:RDF>
  </metadata>
  <defs
     id="defs4644">
    <path
       id="c2eDqyLIje"
       d="m 370,288 h 74 v 52 h -74 z" />
    <clipPath
       id="clipadEhjF6T8">
      <use
         height="100%"
         width="100%"
         y="0"
         x="0"
         style="opacity:1"
         id="use4629"
         xlink:href="#c2eDqyLIje" />
    </clipPath>
    <path
       id="e20knBc5v"
       d="" />
    <path
       id="bMXZmCB5T"
       d="" />
    <path
       id="g92mXEWYs9"
       d="m 292.58,340.78 -8.25,-4.49 -0.51,-5.94 3.28,-3.51 z" />
    <path
       id="c4fYRH7gI"
       d="" />
    <path
       id="b2u6gxzIIR"
       d="" />
    <path
       id="aBOJ6tr2P"
       d="m 287.38,326.97 45.82,-6.11 -2.76,19.77 -24.25,4.02 -12.31,-3.21 z" />
    <path
       id="a1PG27Tp9O"
       d="m 333.69,320.86 18.48,10.13 -0.48,6.43 -21.51,3.27 z" />
    <path
       id="e1SOFXPSsi"
       d="m 334.01,320.54 12.06,-9.65 h 3.37 l 5.31,5.95 -2.58,13.99 z" />
    <path
       id="abTmocvN"
       d="m 336.9,317.97 -6.42,-22.58 15.59,15.18 z" />
    <path
       id="c27KpEekVR"
       d="m 336.74,318.13 -3.21,2.57 -22.51,-22.03 18.16,-4.34 z" />
    <path
       id="b3BKXvfII"
       d="m 333.53,320.54 -46.19,5.96 23.29,-27.44 z" />
    <path
       id="e8039pmAb"
       d="m 310.63,298.81 -16.82,2.11 -6.06,25.02 z" />
  </defs>
  <g
     transform="matrix(2,0,0,2,-725.43718,-471.27384)"
     id="g932">
    <path
       style="opacity:1;fill:#b4b5c0;fill-opacity:1;stroke:#000000;stroke-width:0;stroke-miterlimit:4;stroke-dasharray:none;stroke-opacity:1"
       d="m 366.92017,261.9376 5.97025,-20.1801 16.66031,-1.80339 z"
       id="path908" />
    <path
       style="opacity:1;fill:#b4b5c0;fill-opacity:1;stroke:#000000;stroke-width:0;stroke-miterlimit:4;stroke-dasharray:none;stroke-opacity:1"
       d="m 389.55073,239.95411 18.78522,-4.31719 4.4481,25.81208 z"
       id="path910" />
    <path
       style="opacity:1;fill:#9495a7;fill-opacity:1;stroke:#000000;stroke-width:0;stroke-miterlimit:4;stroke-dasharray:none;stroke-opacity:1"
       d="m 389.55073,239.95411 23.23332,21.49489 -47.60753,6.21892 1.74365,-5.73032 z"
       id="path912" />
    <path
       style="opacity:1;fill:#cbccd3;fill-opacity:1;stroke:#000000;stroke-width:0;stroke-miterlimit:4;stroke-dasharray:none;stroke-opacity:1"
       d="m 408.33595,235.63692 19.56751,16.18673 -13.08897,9.49775 -2.03044,0.1276 z"
       id="path914" />
    <path
       style="opacity:1;fill:#9495a7;fill-opacity:1;stroke:#000000;stroke-width:0;stroke-miterlimit:4;stroke-dasharray:none;stroke-opacity:1"
       d="m 414.81449,261.3214 6.54449,-4.74887 6.54448,-4.74888 5.14412,5.442 1.25503,5.44199 -2.65465,8.78504 z"
       id="path916" />
    <path
       style="opacity:1;fill:#6f7186;fill-opacity:1;stroke:#000000;stroke-width:0;stroke-miterlimit:4;stroke-dasharray:none;stroke-opacity:1"
       d="m 412.78405,261.449 2.03044,-0.1276 16.83347,10.17128 -1.375,5.73126 -21.25488,4.0605 z"
       id="path918" />
    <path
       style="opacity:1;fill:#5e6071;fill-opacity:1;stroke:#000000;stroke-width:0;stroke-miterlimit:4;stroke-dasharray:none;stroke-opacity:1"
       d="m 370.74989,281.58722 -5.57337,-13.9193 47.60753,-6.21892 -3.76597,19.83544 -24.29797,4.12853 z"
       id="path920" />
    <path
       style="opacity:1;fill:#535564;fill-opacity:1;stroke:#000000;stroke-width:0;stroke-miterlimit:4;stroke-dasharray:none;stroke-opacity:1"
       d="m 362.71859,277.33474 0.25972,-7.43902 2.19821,-2.2278 5.57337,13.9193 -4.01565,-0.44686 z"
       id="path922" />
  </g>
</svg>
