<?xml version="1.0" encoding="utf-8"?>
<!-- Generator: Adobe Illustrator 22.1.0, SVG Export Plug-In . SVG Version: 6.00 Build 0)  -->
<svg version="1.1" id="Layer_1" xmlns="http://www.w3.org/2000/svg" xmlns:xlink="http://www.w3.org/1999/xlink" x="0px" y="0px"
	 viewBox="0 0 116 116" style="enable-background:new 0 0 116 116;" xml:space="preserve">
<style type="text/css">
	.st0{fill:#CFD2D6;}
	.st1{fill:#FFFFFF;}
	.st2{fill:#58595B;}
	.st3{fill:#A62121;}
</style>
<g>
	<path class="st0" d="M-45.7,132.7c-13.9,0-27.1-5.2-27.6-5.4l-17.9-7.1l19.2,0.4c0.6,0,12.9-0.1,23.1-11
		C-69.9,96-82.4,75.3-82.4,53.4c0-39.6,40.1-71.8,89.4-71.8c49.3,0,89.4,32.2,89.4,71.8c0,39.6-40.1,71.8-89.4,71.8
		c-9.1,0-18.1-1.1-26.8-3.3C-25.3,129-34.2,132.7-45.7,132.7z"/>
	<path class="st1" d="M7-14.9c47.4,0,85.9,30.6,85.9,68.3S54.4,121.8,7,121.8c-9.9,0-19.4-1.3-28.3-3.8
		c-5.5,8.7-15.1,11.2-24.5,11.2c-13.4,0-26.3-5.2-26.3-5.2s0,0,0.1,0c1.2,0,16.8-0.3,28.4-15.3C-65,96.3-78.9,76.2-78.9,53.4
		C-78.9,15.7-40.4-14.9,7-14.9 M7-21.9c-24.5,0-47.6,7.6-65.1,21.5C-76,13.9-85.9,33-85.9,53.4c0,12.3,3.7,24.5,10.8,35.3
		c5.2,8,12.3,15.2,20.7,21.2c-8.3,6.8-16.8,7-17.5,7.1l-40.3-1.4l37.6,14.9c0.6,0.2,14.4,5.7,28.9,5.7c13.9,0,22.3-5,27.2-10.3
		c8.3,1.9,16.9,2.9,25.5,2.9c24.5,0,47.6-7.6,65.1-21.5C90,93,99.9,73.9,99.9,53.4S90,13.9,72.1-0.4C54.6-14.3,31.5-21.9,7-21.9
		L7-21.9z"/>
</g>
<g id="Mouse">
	<path class="st2" d="M7,14.8c-3.5,0-6.4,2.8-6.4,6.4V35c0,3.5,2.8,6.4,6.4,6.4s6.4-2.8,6.4-6.4V21.1C13.4,17.6,10.5,14.8,7,14.8z"
		/>
	<path class="st2" d="M14.5-4.5l-6,0V12c4.4,0.7,7.9,4.6,7.9,9.2v13.9c0,4.6-3.4,8.5-7.9,9.2v9.1H7v0v0H5.5v-9.1
		c-4.4-0.7-7.9-4.6-7.9-9.2V21.2c0-4.6,3.4-8.5,7.9-9.2V-4.5h-6c-16.1,0-29.2,15.3-29.2,34.2v23.8v23.8c0,18.8,13.1,34.2,29.2,34.2
		H7l0,0l7.5,0c16.1,0,29.2-15.3,29.2-34.2V53.4V29.7C43.8,10.8,30.7-4.5,14.5-4.5z"/>
</g>
<g id="Mouse_1_">
	<path class="st3" d="M43.8,53.4V29.7c0-18.8-13.1-34.2-29.2-34.2l-6,0V12c4.4,0.7,7.9,4.6,7.9,9.2v13.9c0,4.6-3.4,8.5-7.9,9.2v9.1
		L43.8,53.4z"/>
	<path class="st3" d="M7,14.8c-3.5,0-6.4,2.8-6.4,6.4V35c0,3.5,2.8,6.4,6.4,6.4s6.4-2.8,6.4-6.4V21.1C13.4,17.6,10.5,14.8,7,14.8z"
		/>
	<path class="st3" d="M-29.8,53.4V29.7c0-18.8,13.1-34.2,29.2-34.2l6,0V12c-4.4,0.7-7.9,4.6-7.9,9.2v13.9c0,4.6,3.4,8.5,7.9,9.2v9.1
		L-29.8,53.4z"/>
</g>
<g id="Keys">
	<rect x="117.4" y="60" class="st2" width="35" height="35"/>
	<rect x="155.5" y="60" class="st2" width="35" height="35"/>
	<rect x="155.5" y="22" class="st2" width="35" height="35"/>
	<rect x="193.5" y="60" class="st2" width="35" height="35"/>
</g>
</svg>
