<?xml version="1.0" encoding="utf-8"?>
<!-- Generator: Adobe Illustrator 21.1.0, SVG Export Plug-In . SVG Version: 6.00 Build 0)  -->
<svg version="1.1" id="Layer_2" xmlns="http://www.w3.org/2000/svg" xmlns:xlink="http://www.w3.org/1999/xlink" x="0px" y="0px"
	 viewBox="0 0 1280 1024" style="enable-background:new 0 0 1280 1024;" xml:space="preserve">
<style type="text/css">
	.st0{fill:#F15A29;}
	.st1{fill:#FBB040;}
	.st2{fill:#F9ED32;}
	.st3{fill:#F7941E;}
	.st4{fill:#EF4136;}
	.st5{fill:#BE1E2D;}
</style>
<g id="Beetle">
	<polygon class="st0" points="622.8,365.5 581,521.6 622.9,497.5 	"/>
	<polygon class="st1" points="664.7,521.6 622.9,497.5 622.8,365.5 	"/>
	<polygon class="st2" points="581,521.6 622.9,573.8 664.7,521.6 	"/>
	<polygon class="st1" points="532.7,341.4 581,190.2 442.6,365.5 	"/>
	<polygon class="st1" points="803.1,365.5 667.9,191 713,341.4 	"/>
	<polygon class="st1" points="705.2,466.7 803.1,677.7 669.5,503.6 	"/>
	<polygon class="st1" points="540.5,466.7 576.2,503.6 442.6,677.7 	"/>
	<polygon class="st3" points="442.6,365.5 576.2,503.6 532.7,341.4 	"/>
	<polygon class="st3" points="669.5,503.6 803.1,365.5 713,341.4 	"/>
	<polygon class="st3" points="442.6,677.7 532.7,833.8 487.7,619 	"/>
	<polygon class="st3" points="803.1,677.7 713,833.8 758,619 	"/>
	<polygon class="st4" points="504.6,699.7 537.1,554.6 487.7,619 	"/>
	<polygon class="st4" points="741.1,699.7 758,619 709.7,556 	"/>
	<polygon class="st5" points="532.7,833.8 537.1,554.6 504.6,699.7 	"/>
	<polygon class="st5" points="713,833.8 709.7,556 741.1,699.7 	"/>
	<polygon class="st0" points="622.8,677.7 545.5,543.7 576.2,503.6 	"/>
	<polygon class="st0" points="700.2,543.7 669.5,503.6 622.8,677.7 	"/>
	<polygon class="st5" points="722.8,504.6 705.2,466.7 803.1,365.5 	"/>
	<polygon class="st5" points="523.4,503.6 540.5,466.7 442.6,365.5 	"/>
	<polygon class="st4" points="622.8,677.7 622.9,573.8 581,521.6 	"/>
	<polygon class="st1" points="664.7,521.6 622.8,677.7 622.9,573.8 	"/>
	<polygon class="st5" points="581,190.2 545.5,388.9 532.7,341.4 	"/>
	<polygon class="st5" points="667.9,191 713,341.4 700.2,388.9 	"/>
	<polygon class="st4" points="589.9,330.1 553,346.8 545.5,388.9 581,521.6 	"/>
	<polygon class="st4" points="664.7,521.6 700.2,388.9 693.3,346.6 659.2,330.1 	"/>
	<polygon class="st4" points="577,598.3 556.9,612 545.5,543.7 	"/>
	<polygon class="st2" points="556.9,612 598.9,636.2 577,598.3 	"/>
	<polygon class="st5" points="622.8,677.7 556.9,612 598.9,636.2 	"/>
	<polygon class="st4" points="700.2,543.7 664.7,605.3 682.5,615.5 	"/>
	<polygon class="st5" points="622.8,677.7 682.5,615.5 646.6,636.2 	"/>
	<polygon class="st2" points="664.7,605.3 682.5,615.5 646.6,636.2 	"/>
	<polygon class="st5" points="664.7,521.6 581,521.6 622.9,497.5 	"/>
	<polygon class="st5" points="556.9,612 536.5,590.5 537.1,554.6 545.5,543.7 	"/>
	<polygon class="st5" points="682.5,615.5 710.1,590.7 709.7,556 700.2,543.7 	"/>
	<polygon class="st5" points="581,521.6 589.9,330.1 622.8,365.5 	"/>
	<polygon class="st5" points="664.7,521.6 622.8,365.5 659.2,330.1 	"/>
</g>
</svg>
