<?xml version="1.0" encoding="UTF-8" standalone="no"?>
<svg
   xmlns:dc="http://purl.org/dc/elements/1.1/"
   xmlns:cc="http://creativecommons.org/ns#"
   xmlns:rdf="http://www.w3.org/1999/02/22-rdf-syntax-ns#"
   xmlns:svg="http://www.w3.org/2000/svg"
   xmlns="http://www.w3.org/2000/svg"
   id="svg1538"
   version="1.1"
   viewBox="0 0 40.45776 28.46178"
   height="28.461781mm"
   width="40.45776mm">
  <defs
     id="defs1532" />
  <metadata
     id="metadata1535">
    <rdf:RDF>
      <cc:Work
         rdf:about="">
        <dc:format>image/svg+xml</dc:format>
        <dc:type
           rdf:resource="http://purl.org/dc/dcmitype/StillImage" />
        <dc:title></dc:title>
      </cc:Work>
    </rdf:RDF>
  </metadata>
  <g
     transform="translate(-96.673239,-126.21202)"
     id="layer1">
    <g
       transform="matrix(2,0,0,2,-116.90212,-140.4429)"
       id="g2284">
      <path
         style="opacity:1;fill:#535564;fill-opacity:1;stroke:#000000;stroke-width:0;stroke-miterlimit:4;stroke-dasharray:none;stroke-opacity:1"
         d="m 108.17699,144.92642 -1.29701,-3.79367 3.86407,1.47101 1.23321,3.13074 z"
         id="path2118" />
      <path
         style="opacity:1;fill:#535564;fill-opacity:1;stroke:#000000;stroke-width:0;stroke-miterlimit:4;stroke-dasharray:none;stroke-opacity:1"
         d="m 118.3019,145.63732 0.94317,-2.44269 0.73027,-0.41441 0.79761,2.25546 z"
         id="path2120" />
      <path
         style="opacity:1;fill:#525463;fill-opacity:1;stroke:#000000;stroke-width:0;stroke-miterlimit:4;stroke-dasharray:none;stroke-opacity:1"
         d="m 120.97301,145.21439 1.4403,-1.60462 3.08905,0.29852 -0.87374,1.53885 z"
         id="path2122" />
      <path
         style="opacity:1;fill:#6f7186;fill-opacity:1;stroke:#000000;stroke-width:0;stroke-miterlimit:4;stroke-dasharray:none;stroke-opacity:1"
         d="m 111.97726,145.7345 -1.23321,-3.13074 0.58029,-2.37508 8.16232,0.12236 -0.24159,2.84359 -0.94317,2.44269 -2.72368,0.66911 z"
         id="path2124" />
      <path
         style="opacity:1;fill:#6f7186;fill-opacity:1;stroke:#000000;stroke-width:0;stroke-miterlimit:4;stroke-dasharray:none;stroke-opacity:1"
         d="m 119.97534,142.78022 0.75805,-1.4187 1.46108,0.84689 0.21884,1.40111 -1.4403,1.60487 -0.20006,-0.17871 z"
         id="path2126" />
      <path
         style="opacity:1;fill:#9495a7;fill-opacity:1;stroke:#000000;stroke-width:0;stroke-miterlimit:4;stroke-dasharray:none;stroke-opacity:1"
         d="m 122.41331,143.60977 -0.21884,-1.40111 2.42407,-0.50377 0.6527,0.70533 0.23112,1.49807 z"
         id="path2130" />
      <path
         style="opacity:1;fill:#9fa3b5;fill-opacity:1;stroke:#000000;stroke-width:0;stroke-miterlimit:4;stroke-dasharray:none;stroke-opacity:1"
         d="m 111.32434,140.22868 1.98955,-4.69138 3.92173,0.15849 2.25104,4.65525 z"
         id="path2132" />
      <path
         style="opacity:1;fill:#606060;fill-opacity:1;stroke:#000000;stroke-width:0;stroke-miterlimit:4;stroke-dasharray:none;stroke-opacity:1"
         d="m 106.87998,141.13275 -0.0923,-3.1267 4.53662,2.22263 -0.58025,2.37508 z"
         id="path2134" />
      <path
         style="opacity:1;fill:#9495a7;fill-opacity:1;stroke:#000000;stroke-width:0;stroke-miterlimit:4;stroke-dasharray:none;stroke-opacity:1"
         d="m 106.78772,138.00605 3.71388,-4.60779 2.81229,2.13904 -1.98955,4.69138 z"
         id="path2136" />
      <path
         style="opacity:1;fill:#d1d2d9;fill-opacity:1;stroke:#000000;stroke-width:0;stroke-miterlimit:4;stroke-dasharray:none;stroke-opacity:1"
         d="m 120.73339,141.36152 1.51878,-0.69867 2.36637,1.04179 -2.42407,0.50377 z"
         id="path2138" />
      <path
         style="opacity:1;fill:#c1c2ca;fill-opacity:1;stroke:#000000;stroke-width:0;stroke-miterlimit:4;stroke-dasharray:none;stroke-opacity:1"
         d="m 113.31389,135.5373 -2.81229,-2.13904 6.59806,-0.0708 0.64279,0.56701 -0.50683,1.80132 z"
         id="path2144" />
      <path
         style="opacity:1;fill:#cbccd3;fill-opacity:1;stroke:#000000;stroke-width:0;stroke-miterlimit:4;stroke-dasharray:none;stroke-opacity:1"
         d="m 117.23562,135.69579 0.50683,-1.80132 4.69197,4.08097 -2.94776,2.3756 z"
         id="path2146" />
      <path
         style="opacity:1;fill:#b6b0b0;fill-opacity:1;stroke:#000000;stroke-width:0;stroke-miterlimit:4;stroke-dasharray:none;stroke-opacity:1"
         d="m 119.24507,143.19463 0.24159,-2.84359 2.94776,-2.3756 -0.18225,2.68741 -1.51878,0.69867 -0.75808,1.4187 z"
         id="path2148" />
      <path
         style="fill:#cecfd6;fill-opacity:1;stroke:none;stroke-width:0.00590588px;stroke-linecap:butt;stroke-linejoin:miter;stroke-opacity:1"
         d="m 120.10338,146.29164 -0.0677,-0.50056 0.98338,0.0359 0.40932,0.31123 -0.35399,0.26016 z"
         id="path2202" />
      <path
         style="fill:#87889c;fill-opacity:1;stroke:none;stroke-width:0.00590588px;stroke-linecap:butt;stroke-linejoin:miter;stroke-opacity:1"
         d="m 119.70295,145.9052 0.33273,-0.11412 0.0677,0.50056 -0.49927,0.27057 z"
         id="path2204" />
      <path
         style="fill:#87889c;fill-opacity:1;stroke:none;stroke-width:0.00590588px;stroke-linecap:butt;stroke-linejoin:miter;stroke-opacity:1"
         d="m 121.07439,146.39837 0.35399,-0.26016 0.36441,0.59326 z"
         id="path2208" />
      <path
         style="fill:#6a6b80;fill-opacity:1;stroke:none;stroke-width:0.00590588px;stroke-linecap:butt;stroke-linejoin:miter;stroke-opacity:1"
         d="m 119.60411,146.56221 0.49927,-0.27057 0.97101,0.10673 0.7184,0.3331 -0.54934,0.53304 z"
         id="path2210" />
      <path
         style="fill:#535564;fill-opacity:1;stroke:none;stroke-width:0.00590588px;stroke-linecap:butt;stroke-linejoin:miter;stroke-opacity:1"
         d="m 119.67722,146.95047 -0.0731,-0.38826 1.63934,0.7023 -0.50535,0.29384 -0.83008,-0.31438 z"
         id="path2212" />
      <path
         style="fill:#cecfd6;fill-opacity:1;stroke:none;stroke-width:0.00590588px;stroke-linecap:butt;stroke-linejoin:miter;stroke-opacity:1"
         d="m 123.90122,146.66384 0.61388,-0.0294 -0.21179,0.24029 z"
         id="path2214" />
      <path
         style="fill:#87889c;fill-opacity:1;stroke:none;stroke-width:0.00590588px;stroke-linecap:butt;stroke-linejoin:miter;stroke-opacity:1"
         d="m 123.63327,147.01408 0.26795,-0.35024 0.40209,0.21089 -0.43685,0.25664 z"
         id="path2216" />
      <path
         style="fill:#87889c;fill-opacity:1;stroke:none;stroke-width:0.00590588px;stroke-linecap:butt;stroke-linejoin:miter;stroke-opacity:1"
         d="m 124.30331,146.87473 0.21179,-0.24029 0.27938,0.29692 -0.0691,0.26395 z"
         id="path2218" />
      <path
         style="fill:#585968;fill-opacity:1;stroke:none;stroke-width:0.00590588px;stroke-linecap:butt;stroke-linejoin:miter;stroke-opacity:1"
         d="m 123.86646,147.13137 0.43685,-0.25664 0.42207,0.32058 -0.30198,0.20082 -0.35525,-0.0202 z"
         id="path2220" />
      <path
         style="fill:#9495a5;fill-opacity:1;stroke:none;stroke-width:0.00835217px;stroke-linecap:butt;stroke-linejoin:miter;stroke-opacity:1"
         d="m 125.58946,144.68436 0.74548,-0.0448 0.51165,0.19809 -0.50304,0.40798 z"
         id="path2222" />
      <path
         style="fill:#6e7085;fill-opacity:1;stroke:none;stroke-width:0.00835217px;stroke-linecap:butt;stroke-linejoin:miter;stroke-opacity:1"
         d="m 125.51836,144.78396 0.0711,-0.0996 0.75409,0.56125 -0.83841,-0.12122 z"
         id="path2224" />
      <path
         style="fill:#6e7085;fill-opacity:1;stroke:none;stroke-width:0.00835217px;stroke-linecap:butt;stroke-linejoin:miter;stroke-opacity:1"
         d="m 126.34355,145.24559 0.50304,-0.40798 0.16997,0.30143 z"
         id="path2226" />
      <path
         style="fill:#555768;fill-opacity:1;stroke:none;stroke-width:0.00835217px;stroke-linecap:butt;stroke-linejoin:miter;stroke-opacity:1"
         d="m 125.50514,145.12437 0.83841,0.12122 0.67301,-0.10655 -0.095,0.55858 -0.97218,0.14449 z"
         id="path2228" />
      <path
         style="fill:#3b4645;fill-opacity:1;stroke:none;stroke-width:0.00208804px;stroke-linecap:butt;stroke-linejoin:miter;stroke-opacity:1"
         d="m 123.63327,147.01408 0.23319,0.11729 0.20169,0.24456 z"
         id="path2234" />
      <path
         style="fill:#3b4645;fill-opacity:1;stroke:none;stroke-width:0.00208804px;stroke-linecap:butt;stroke-linejoin:miter;stroke-opacity:1"
         d="m 119.60412,146.56221 0.0731,0.38826 0.23081,0.2935 z"
         id="path2234-9" />
      <path
         style="fill:#d1d2d9;fill-opacity:1;stroke:none;stroke-width:0.00292326px;stroke-linecap:butt;stroke-linejoin:miter;stroke-opacity:1"
         d="m 125.74616,144.45161 0.58878,0.18795 -0.74548,0.0448 z"
         id="path2253" />
    </g>
  </g>
</svg>
